HIERARCHY
ROOT pelvis
{
	OFFSET 0 0 1.1
	CHANNELS 6 Xposition Yposition Zposition Zrotation Xrotation Yrotation
	JOINT left_hip_yaw_joint
	{
		OFFSET 0.0 0.0875 -0.1742
		CHANNELS 3 Zrotation Xrotation Yrotation
		JOINT left_hip_roll_joint
		{
			OFFSET 0.039468 0.0 0.0
			CHANNELS 3 Zrotation Xrotation Yrotation
			JOINT left_hip_pitch_joint
			{
				OFFSET 0.0 0.11536 0.0
				CHANNELS 3 Zrotation Xrotation Yrotation
				JOINT left_knee_joint
				{
					OFFSET 0.0 0.0 -0.4
					CHANNELS 3 Zrotation Xrotation Yrotation
					JOINT left_ankle_joint
					{
						OFFSET 0.0 0.0 -0.4
						CHANNELS 3 Zrotation Xrotation Yrotation
						End Site
						{
							OFFSET 0.0 0.0 -0.1
						}
					}
				}
			}
		}
	}
	JOINT right_hip_yaw_joint
	{
		OFFSET 0.0 -0.0875 -0.1742
		CHANNELS 3 Zrotation Xrotation Yrotation
		JOINT right_hip_roll_joint
		{
			OFFSET 0.039468 0.0 0.0
			CHANNELS 3 Zrotation Xrotation Yrotation
			JOINT right_hip_pitch_joint
			{
				OFFSET 0.0 -0.11536 0.0
				CHANNELS 3 Zrotation Xrotation Yrotation
				JOINT right_knee_joint
				{
					OFFSET 0.0 0.0 -0.4
					CHANNELS 3 Zrotation Xrotation Yrotation
					JOINT right_ankle_joint
					{
						OFFSET 0.0 0.0 -0.4
						CHANNELS 3 Zrotation Xrotation Yrotation
						End Site
						{
							OFFSET 0.0 0.0 -0.1
						}
					}
				}
			}
		}
	}
	JOINT torso_joint
	{
		OFFSET 0.0 0.0 0.0
		CHANNELS 3 Zrotation Xrotation Yrotation
		JOINT left_shoulder_pitch_joint
		{
			OFFSET 0.0055 0.15535 0.42999
			CHANNELS 3 Zrotation Xrotation Yrotation
			JOINT left_shoulder_roll_joint
			{
				OFFSET -0.0055 0.0565 -0.0165
				CHANNELS 3 Zrotation Xrotation Yrotation
				JOINT left_shoulder_yaw_joint
				{
					OFFSET 0.0 0.0 -0.1343
					CHANNELS 3 Zrotation Xrotation Yrotation
					JOINT left_elbow_joint
					{
						OFFSET 0.0185 0.0 -0.198
						CHANNELS 3 Zrotation Xrotation Yrotation
						JOINT left_hand_joint
						{
							OFFSET 0.2605 0.0 -0.0185
							CHANNELS 3 Zrotation Xrotation Yrotation
							JOINT L_thumb_proximal_yaw_joint
							{
								OFFSET 0.0721 -0.01696 0.02045
								CHANNELS 3 Zrotation Xrotation Yrotation
								JOINT L_thumb_proximal_pitch_joint
								{
									OFFSET 0.0099867 0.0098242 -0.0089
									CHANNELS 3 Zrotation Xrotation Yrotation
									JOINT L_thumb_intermediate_joint
									{
										OFFSET 0.04407 -0.034553 -0.0008
										CHANNELS 3 Zrotation Xrotation Yrotation
										JOINT L_thumb_distal_joint
										{
											OFFSET 0.020248 -0.010156 -0.0012
											CHANNELS 3 Zrotation Xrotation Yrotation
											End Site
											{
												OFFSET 0.005062 -0.002539 -0.0003
											}
										}
									}
								}
							}
							JOINT L_index_proximal_joint
							{
								OFFSET 0.13953 0.00028533 0.032268
								CHANNELS 3 Zrotation Xrotation Yrotation
								JOINT L_index_intermediate_joint
								{
									OFFSET -0.0024229 -0.032041 -0.001
									CHANNELS 3 Zrotation Xrotation Yrotation
									End Site
									{
										OFFSET -0.000605725 -0.00801025 -0.00025
									}
								}
							}
							JOINT L_middle_proximal_joint
							{
								OFFSET 0.1401 0.00028533 0.01295
								CHANNELS 3 Zrotation Xrotation Yrotation
								JOINT L_middle_intermediate_joint
								{
									OFFSET -0.0024229 -0.032041 -0.001
									CHANNELS 3 Zrotation Xrotation Yrotation
									End Site
									{
										OFFSET -0.000605725 -0.00801025 -0.00025
									}
								}
							}
							JOINT L_ring_proximal_joint
							{
								OFFSET 0.13991 0.00028533 -0.0062872
								CHANNELS 3 Zrotation Xrotation Yrotation
								JOINT L_ring_intermediate_joint
								{
									OFFSET -0.0024229 -0.032041 -0.001
									CHANNELS 3 Zrotation Xrotation Yrotation
									End Site
									{
										OFFSET -0.000605725 -0.00801025 -0.00025
									}
								}
							}
							JOINT L_pinky_proximal_joint
							{
								OFFSET 0.13871 0.00028533 -0.025488
								CHANNELS 3 Zrotation Xrotation Yrotation
								JOINT L_pinky_intermediate_joint
								{
									OFFSET -0.0024229 -0.032041 -0.001
									CHANNELS 3 Zrotation Xrotation Yrotation
									End Site
									{
										OFFSET -0.000605725 -0.00801025 -0.00025
									}
								}
							}
						}
					}
				}
			}
		}
		JOINT right_shoulder_pitch_joint
		{
			OFFSET 0.0055 -0.15535 0.42999
			CHANNELS 3 Zrotation Xrotation Yrotation
			JOINT right_shoulder_roll_joint
			{
				OFFSET -0.0055 -0.0565 -0.0165
				CHANNELS 3 Zrotation Xrotation Yrotation
				JOINT right_shoulder_yaw_joint
				{
					OFFSET 0.0 0.0 -0.1343
					CHANNELS 3 Zrotation Xrotation Yrotation
					JOINT right_elbow_joint
					{
						OFFSET 0.0185 0.0 -0.198
						CHANNELS 3 Zrotation Xrotation Yrotation
						JOINT right_hand_joint
						{
							OFFSET 0.2605 0.0 -0.0185
							CHANNELS 3 Zrotation Xrotation Yrotation
							JOINT R_thumb_proximal_yaw_joint
							{
								OFFSET 0.0721 0.01696 0.02045
								CHANNELS 3 Zrotation Xrotation Yrotation
								JOINT R_thumb_proximal_pitch_joint
								{
									OFFSET -0.0088099 0.010892 -0.00925
									CHANNELS 3 Zrotation Xrotation Yrotation
									JOINT R_thumb_intermediate_joint
									{
										OFFSET 0.04407 0.034553 -0.0008
										CHANNELS 3 Zrotation Xrotation Yrotation
										JOINT R_thumb_distal_joint
										{
											OFFSET 0.020248 0.010156 -0.0012
											CHANNELS 3 Zrotation Xrotation Yrotation
											End Site
											{
												OFFSET 0.005062 0.002539 -0.0003
											}
										}
									}
								}
							}
							JOINT R_index_proximal_joint
							{
								OFFSET 0.13953 -0.00028533 0.032268
								CHANNELS 3 Zrotation Xrotation Yrotation
								JOINT R_index_intermediate_joint
								{
									OFFSET -0.0026138 0.032026 -0.001
									CHANNELS 3 Zrotation Xrotation Yrotation
									End Site
									{
										OFFSET -0.00065345 0.0080065 -0.00025
									}
								}
							}
							JOINT R_middle_proximal_joint
							{
								OFFSET 0.1401 -0.00028533 0.01295
								CHANNELS 3 Zrotation Xrotation Yrotation
								JOINT R_middle_intermediate_joint
								{
									OFFSET -0.0024229 0.032041 -0.001
									CHANNELS 3 Zrotation Xrotation Yrotation
									End Site
									{
										OFFSET -0.000605725 0.00801025 -0.00025
									}
								}
							}
							JOINT R_ring_proximal_joint
							{
								OFFSET 0.13991 -0.00028533 -0.0062872
								CHANNELS 3 Zrotation Xrotation Yrotation
								JOINT R_ring_intermediate_joint
								{
									OFFSET -0.0024229 0.032041 -0.001
									CHANNELS 3 Zrotation Xrotation Yrotation
									End Site
									{
										OFFSET -0.000605725 0.00801025 -0.00025
									}
								}
							}
							JOINT R_pinky_proximal_joint
							{
								OFFSET 0.13871 -0.00028533 -0.025488
								CHANNELS 3 Zrotation Xrotation Yrotation
								JOINT R_pinky_intermediate_joint
								{
									OFFSET -0.0024229 0.032041 -0.001
									CHANNELS 3 Zrotation Xrotation Yrotation
									End Site
									{
										OFFSET -0.000605725 0.00801025 -0.00025
									}
								}
							}
						}
					}
				}
			}
		}
	}
}
MOTION
Frames: 9
Frame Time: 0.016666666666666666
0 1.1 0 0 -90 0 -1.0779480336087367e-05 0 0 0 -1.0988322079575397 0 0 0 0.08621328386665249 0 0 0.03164809894077566 0 0 0.03766516553191972 1.0778015550687161e-05 0 0 0 1.0988322079575397 0 0 0 0.08621329053675922 0 0 0.03164809894077566 0 0 0.03766516553191972 41.24173134608268 0 0 0 0 0.3545885564383266 0 -0.0020000175359913756 0 0.001992014658566242 0 0 0 0 0.3553446263758324 0 0.0013523439197571365 0 0.00022904560254214328 0 0 -0.0007038382077089388 0 0 -8.440084031014389e-05 0 0 -3.116282329885147e-05 0 0 1.6405181737975027e-07 0 0 9.793917819909266e-08 0 0 1.490430085818383e-07 0 0 2.86227503303727e-08 0 0 7.713503608946277e-08 0 0 -6.275867042297318e-07 0 0 -2.1845090602420278e-07 0 0 -1.2419186883205191e-06 0 0 0 0 -27.785160498704126 0 -23.51416288311704 0 -11.860543441323452 0 0 0 0 47.23621623754799 0 -0.12020819649264784 0 -61.817604854746364 0 0 2.1252300450880854 0 0 2.52712692044372 0 0 2.6476900066347846 0 0 2.6525084917330113 0 0 2.6496122780321105 0 0 2.652945410403934 0 0 2.6498468523454193 0 0 2.652535385603327 0 0 2.6496573145927185 0 0 -0.017859040668788195 0 0 -0.005014344444576679 0 0
0 1.1 0 0 -90 0 -1.0497424874569342e-05 0 0 0 -1.0988478960485573 0 0 0 0.08621444446522267 0 0 0.0316485491729796 0 0 0.03766605599116752 1.0495966602945234e-05 0 0 0 1.0988478960485573 0 0 0 0.08621445113532938 0 0 0.0316485491729796 0 0 0.03766605599116752 41.260012347708056 0 0 0 0 0.354525457228707 0 -0.0020509094080998678 0 0.00195905432618406 0 0 0 0 0.35535110971956924 0 0.0013525081711352428 0 0.00022919687847826068 0 0 -0.0007038650444664657 0 0 -8.440640307493221e-05 0 0 -3.116408697141463e-05 0 0 1.7661672608539337e-07 0 0 1.0209387323926628e-07 0 0 1.629948554299765e-07 0 0 3.364517703576383e-08 0 0 8.998961063710666e-08 0 0 -6.242320586499997e-07 0 0 -2.0166358190695316e-07 0 0 -1.249684534318751e-06 0 0 0 0 -27.79498572599279 0 -23.529397620320633 0 -11.866180055032157 0 0 0 0 47.2621094851332 0 -0.11990736133913148 0 -61.81822640197144 0 0 2.352135549932258 0 0 2.815914793997454 0 0 2.956552446831856 0 0 2.963600561845302 0 0 2.960375858728402 0 0 2.9640863590583058 0 0 2.9606366865817813 0 0 2.9636285229326935 0 0 2.960424950713899 0 0 -0.0182105586282554 0 0 -0.005228511983241876 0 0
0 1.1 0 0 -90 0 -1.0222992973752893e-05 0 0 0 -1.0988630505310366 0 0 0 0.0862155717132592 0 0 0.03164898272991673 0 0 0.03766691976998843 1.0221370229282291e-05 0 0 0 1.0988630505310366 0 0 0 0.08621557838336594 0 0 0.03164898272991673 0 0 0.03766691976998843 41.278153330453065 0 0 0 0 0.3544280736705202 0 -0.002115762022024872 0 0.0019133509633443707 0 0 0 0 0.3553588203629435 0 0.0013527471485527537 0 0.00022941477731631607 0 0 -0.0007039171025650469 0 0 -8.441771099023965e-05 0 0 -3.116666316986168e-05 0 0 1.6714677702642057e-07 0 0 9.893177844323445e-08 0 0 1.5258463261337388e-07 0 0 3.011203554370842e-08 0 0 8.091639125364834e-08 0 0 -6.318632017940644e-07 0 0 -2.1069952518890886e-07 0 0 -1.264321905212407e-06 0 0 0 0 -27.804580434393035 0 -23.54441891410902 0 -11.871736414016743 0 0 0 0 47.287657808159445 0 -0.11958434141064735 0 -61.81876598692507 0 0 2.5774641348249046 0 0 3.1123313486539885 0 0 3.2767502264801576 0 0 3.287245025762316 0 0 3.2836785997376747 0 0 3.287781195621308 0 0 3.2839663214613695 0 0 3.287273413736538 0 0 3.2837317471480603 0 0 -0.018538367693368165 0 0 -0.005426036354982886 0 0
0 1.1 0 0 -90 0 -9.954370546994516e-06 0 0 0 -1.0988777781266856 0 0 0 0.0862166589406554 0 0 0.03164940294664042 0 0 0.037667756868382425 9.952853651385518e-06 0 0 0 1.0988777781266856 0 0 0 0.08621666561076213 0 0 0.03164940294664042 0 0 0.037667756868382425 41.29623967168378 0 0 0 0 0.35431260078289495 0 -0.0021885168364516277 0 0.0018615798877931733 0 0 0 0 0.3553654371088148 0 0.0013530098882254728 0 0.00022966081566711807 0 0 -0.0007039772377459906 0 0 -8.443124661697285e-05 0 0 -3.1169669277531256e-05 0 0 1.5663754990200455e-07 0 0 9.541851223772254e-08 0 0 1.4097705816096292e-07 0 0 2.6169690240465003e-08 0 0 7.080809849810746e-08 0 0 -6.448471931139047e-07 0 0 -2.3250453062388394e-07 0 0 -1.2821917374950676e-06 0 0 0 0 -27.81397877485129 0 -23.55929848146971 0 -11.877221056013822 0 0 0 0 47.3128919424785 0 -0.11933029038570096 0 -61.81929874168942 0 0 2.8012956276033116 0 0 3.4154263343288362 0 0 3.6072423820437414 0 0 3.6228135060696927 0 0 3.6188929774192284 0 0 3.6234017561219947 0 0 3.6192084467869 0 0 3.62284210748733 0 0 3.618950180254503 0 0 -0.01879679931090627 0 0 -0.005586828032106988 0 0
0 1.1 0 0 -90 0 -9.693103801895653e-06 0 0 0 -1.0988919721137969 0 0 0 0.08621771281751797 0 0 0.03164981315820401 0 0 0.03766857062140289 9.691470472538892e-06 0 0 0 1.0988919721137969 0 0 0 0.0862177194876247 0 0 0.03164981315820401 0 0 0.03766857062140289 41.31418257893947 0 0 0 0 0.3542053187863281 0 -0.0022575451456273926 0 0.0018134350574512549 0 0 0 0 0.3553707731941949 0 0.0013532463643529619 0 0.00022988653103649196 0 0 -0.0007040290874037367 0 0 -8.444313425835307e-05 0 0 -3.117225850353051e-05 0 0 1.4896056860308852e-07 0 0 9.284658209512212e-08 0 0 1.3248152929526255e-07 0 0 2.326212410799111e-08 0 0 6.328733332559096e-08 0 0 -6.556200627814739e-07 0 0 -2.494534778105838e-07 0 0 -1.2983536373290856e-06 0 0 0 0 -27.823187577556844 0 -23.573973143151804 0 -11.882665570648841 0 0 0 0 47.33771626544037 0 -0.11904657072604125 0 -61.81977002475019 0 0 3.02357922873466 0 0 3.7247519467369 0 0 3.9474088604014397 0 0 3.969750836444488 0 0 3.965464465780364 0 0 3.970392874237421 0 0 3.965808536565673 0 0 3.9697790109752944 0 0 3.965525510597112 0 0 -0.019000437669224192 0 0 -0.005727395945640526 0 0
0 1.1 0 0 -90 0 -9.436285965872236e-06 0 0 0 -1.0989057392140775 0 0 0 0.08621872000363347 0 0 0.03165020669450079 0 0 0.03766935769399646 9.434847235576424e-06 0 0 0 1.0989057392140775 0 0 0 0.08621872667374018 0 0 0.03165020669450079 0 0 0.03766935769399646 41.33201278807194 0 0 0 0 0.354099717656656 0 -0.0023251735661542227 0 0.0017661246157724818 0 0 0 0 0.3553760025578674 0 0.001353479088545418 0 0.00023010859869125055 0 0 -0.0007040804159593948 0 0 -8.445489162421131e-05 0 0 -3.1174828188201466e-05 0 0 1.3956625313573106e-07 0 0 8.970917476494894e-08 0 0 1.2209591125009546e-07 0 0 1.970771583669532e-08 0 0 5.4150019403098455e-08 0 0 -6.66545700854109e-07 0 0 -2.67005636286241e-07 0 0 -1.3143415989857168e-06 0 0 0 0 -27.832201719867733 0 -23.58847192745977 0 -11.888033245654388 0 0 0 0 47.362171758180764 0 -0.11878556944988729 0 -61.82021398705382 0 0 3.244276945291044 0 0 4.039953656365525 0 0 4.296747002310448 0 0 4.327514443725252 0 0 4.322850705103048 0 0 4.328211549919308 0 0 4.323224231079655 0 0 4.327541337595568 0 0 4.32291559190127 0 0 -0.019197087423220873 0 0 -0.005857722744060981 0 0
0 1.1 0 0 -90 0 -9.184845252018338e-06 0 0 0 -1.0989190794275276 0 0 0 0.08621968049900189 0 0 0.03165057688542404 0 0 0.03767012142121648 9.183759894075883e-06 0 0 0 1.0989190794275276 0 0 0 0.0862196871691086 0 0 0.03165057688542404 0 0 0.03767012142121648 41.350075223640154 0 0 0 0 0.35395553662968576 0 -0.0024090341082783034 0 0.001704638008674059 0 0 0 0 0.3553818989322124 0 0.0013537891442877185 0 0.00023040302137091408 0 0 -0.0007041576432888216 0 0 -8.44727002880653e-05 0 0 -3.117874948141292e-05 0 0 1.1294259277617283e-07 0 0 8.112132075638013e-08 0 0 8.99070497972769e-08 0 0 4.142346933981536e-09 0 0 1.4847898172722504e-08 0 0 -6.893596927512243e-07 0 0 -3.124699614559905e-07 0 0 -1.3378382142624308e-06 0 0 0 0 -27.840901673471443 0 -23.60329685330617 0 -11.893245533853666 0 0 0 0 47.38673994904439 0 -0.11899857263804728 0 -61.821129232418215 0 0 3.4702330538243897 0 0 4.363192791237067 0 0 4.655473666280612 0 0 4.695572000034468 0 0 4.690520221283424 0 0 4.696325028403307 0 0 4.690923629338159 0 0 4.695596759470631 0 0 4.690588523176289 0 0 -0.01921271548327783 0 0 -0.0058890017926667634 0 0
0 1.1 0 0 -90 0 -8.941649350261432e-06 0 0 0 -1.0989319927541474 0 0 0 0.08622060764383667 0 0 0.031650933736133834 0 0 0.03767086180306297 8.940457329235362e-06 0 0 0 1.0989319927541474 0 0 0 0.0862206143139434 0 0 0.031650933736133834 0 0 0.03767086180306297 41.36797714976013 0 0 0 0 0.35385097603666277 0 -0.0024757087035434415 0 0.0016586775340641997 0 0 0 0 0.35538534070728256 0 0.0013540038383479333 0 0.0002306155007472553 0 0 -0.0007042041777052711 0 0 -8.448375416610488e-05 0 0 -3.118108141325627e-05 0 0 1.0438850353667839e-07 0 0 7.76978924999333e-08 0 0 8.22918157880001e-08 0 0 2.313178895061481e-09 0 0 1.078823254208135e-08 0 0 -7.004685816655126e-07 0 0 -3.309686275765595e-07 0 0 -1.353451124904626e-06 0 0 0 0 -27.849417211964415 0 -23.61793394894719 0 -11.89834939279802 0 0 0 0 47.410802705900814 0 -0.11924205821394107 0 -61.82203764759332 0 0 3.7007446851684316 0 0 4.69393019328472 0 0 5.023103055098929 0 0 5.073432585517167 0 0 5.067982948240182 0 0 5.074242816721281 0 0 5.068416665259876 0 0 5.073454783632347 0 0 5.06805423834086 0 0 -0.01924832051297652 0 0 -0.005921872912371497 0 0
0 1.1 0 0 -90 0 -8.7049159286165e-06 0 0 0 -1.098944479193937 0 0 0 0.08622150143813784 0 0 0.03165127724663017 0 0 0.03767158217458928 8.703450328994282e-06 0 0 0 1.098944479193937 0 0 0 0.08622150810824457 0 0 0.03165127724663017 0 0 0.03767158217458928 41.38568441548544 0 0 0 0 0.35376351759728303 0 -0.0025337125769475935 0 0.0016189123379569664 0 0 0 0 0.35538950285387905 0 0.001354194457491687 0 0.00023079981455574554 0 0 -0.0007042436251333251 0 0 -8.449286693886703e-05 0 0 -3.118304531675004e-05 0 0 1.055342029635787e-07 0 0 7.809219859273919e-08 0 0 8.369118353840233e-08 0 0 2.6577035414979315e-09 0 0 1.1783092570362871e-08 0 0 -7.076738866971216e-07 0 0 -3.4056273277019577e-07 0 0 -1.3662419420520377e-06 0 0 0 0 -27.857763703272546 0 -23.632349063436397 0 -11.903376412112902 0 0 0 0 47.43440784007504 0 -0.11946536004688464 0 -61.82288459106485 0 0 3.9352946659281303 0 0 5.03171165492093 0 0 5.3991993173115524 0 0 5.460625770886238 0 0 5.454768883573045 0 0 5.461494485586118 0 0 5.455233763331358 0 0 5.460644553906776 0 0 5.454843161881535 0 0 -0.019310089036304497 0 0 -0.005968193885405765 0 0
